HIERARCHY
ROOT Hips
{
 OFFSET 0.000000 0.000000 0.000000
 CHANNELS 6 Xposition Yposition Zposition Yrotation Xrotation Zrotation
 JOINT Chest
 {
  OFFSET 0.000000 9.585900 0.002600
  CHANNELS 3 Yrotation Xrotation Zrotation
  JOINT Chest2
  {
   OFFSET 0.000000 9.601200 -0.005300
   CHANNELS 3 Yrotation Xrotation Zrotation
   JOINT Chest3
   {
    OFFSET 0.000000 9.561800 0.000000
    CHANNELS 3 Yrotation Xrotation Zrotation
    JOINT Chest4
    {
     OFFSET 0.000000 9.552100 0.000000
     CHANNELS 3 Yrotation Xrotation Zrotation
     JOINT Neck
     {
      OFFSET 0.000000 14.453000 0.000000
      CHANNELS 3 Yrotation Xrotation Zrotation
      JOINT Head
      {
       OFFSET 0.000000 8.936500 -0.011300
       CHANNELS 3 Yrotation Xrotation Zrotation
       End Site
       {
        OFFSET 0.000000 17.073600 -0.006000
       }
      }
     }
     JOINT RightCollar
     {
      OFFSET -2.921100 9.558500 0.000000
      CHANNELS 3 Yrotation Xrotation Zrotation
      JOINT RightShoulder
      {
       OFFSET -13.519700 0.000000 0.000000
       CHANNELS 3 Yrotation Xrotation Zrotation
       JOINT RightElbow
       {
        OFFSET 0.000000 -29.696600 0.000000
        CHANNELS 3 Yrotation Xrotation Zrotation
        JOINT RightWrist
        {
         OFFSET 0.000000 -24.004700 0.000000
         CHANNELS 3 Yrotation Xrotation Zrotation
         End Site
         {
          OFFSET 0.000000 -17.728500 0.000000
         }
        }
       }
      }
     }
     JOINT LeftCollar
     {
      OFFSET 2.921100 9.558500 0.000000
      CHANNELS 3 Yrotation Xrotation Zrotation
      JOINT LeftShoulder
      {
       OFFSET 13.519700 0.000000 0.000000
       CHANNELS 3 Yrotation Xrotation Zrotation
       JOINT LeftElbow
       {
        OFFSET 0.000000 -29.696600 0.000000
        CHANNELS 3 Yrotation Xrotation Zrotation
        JOINT LeftWrist
        {
         OFFSET 0.000000 -24.004700 0.000000
         CHANNELS 3 Yrotation Xrotation Zrotation
         End Site
         {
          OFFSET 0.000000 -17.728500 0.000000
         }
        }
       }
      }
     }
    }
   }
  }
 }
 JOINT RightHip
 {
  OFFSET -7.771700 -0.012900 -0.001300
  CHANNELS 3 Yrotation Xrotation Zrotation
  JOINT RightKnee
  {
   OFFSET 0.000000 -40.869800 0.001200
   CHANNELS 3 Yrotation Xrotation Zrotation
   JOINT RightAnkle
   {
    OFFSET 0.000000 -39.717900 0.002100
    CHANNELS 3 Yrotation Xrotation Zrotation
    JOINT RightToe
    {
     OFFSET 0.000000 -4.965400 11.033500
     CHANNELS 3 Yrotation Xrotation Zrotation
     End Site
     {
      OFFSET 0.000000 -1.423100 5.872300
     }
    }
   }
  }
 }
 JOINT LeftHip
 {
  OFFSET 7.771700 -0.012900 -0.001300
  CHANNELS 3 Yrotation Xrotation Zrotation
  JOINT LeftKnee
  {
   OFFSET 0.000000 -40.869800 0.001200
   CHANNELS 3 Yrotation Xrotation Zrotation
   JOINT LeftAnkle
   {
    OFFSET 0.000000 -39.717900 0.002100
    CHANNELS 3 Yrotation Xrotation Zrotation
    JOINT LeftToe
    {
     OFFSET 0.000000 -4.965400 11.033500
     CHANNELS 3 Yrotation Xrotation Zrotation
     End Site
     {
      OFFSET 0.000000 -1.423100 5.872300
     }
    }
   }
  }
 }
}
MOTION
Frames: 9
Frame Time: 0.008333
-232.117647 57.422942 137.916737 -177.521906 -31.371524 -1.340397 -0.588872 21.787641 2.452279 -0.155277 2.968607 0.353940 -0.226717 4.832396 0.577905 -0.619134 18.463372 2.159684 -1.988409 13.911317 -0.151928 -3.660239 -9.940450 0.483595 3.284942 -3.738762 -1.565084 14.920793 -18.216631 -23.307954 143.201719 -70.214096 -101.809797 15.165038 -12.801968 -48.696128 -7.698848 -4.982596 -3.186059 0.632053 -9.170689 0.438335 13.266065 -75.969936 -47.925706 -8.785397 7.470678 14.090269 6.479912 -43.810378 -8.780309 -6.986349 68.692836 -10.489789 4.987260 22.516774 6.463090 -0.691406 -15.866769 4.938239 -9.351535 -42.628924 -0.089112 31.913954 69.493628 32.879381 -15.349285 2.999118 -5.460722 -0.020971 0.124632 -0.013681
-232.112165 57.422703 137.916906 -177.495778 -31.367611 -1.379472 -0.612824 21.781409 2.471447 -0.147173 2.971436 0.356864 -0.230071 4.831950 0.576866 -0.629063 18.463339 2.156409 -1.977452 13.909763 -0.150352 -3.657485 -9.948237 0.488222 3.303768 -3.737304 -1.572681 14.908118 -18.218679 -23.299008 143.123838 -70.230905 -101.736311 15.154877 -12.795149 -48.662329 -7.680113 -4.979038 -3.196665 0.631755 -9.171213 0.441055 13.299702 -75.953737 -47.932769 -8.797245 7.462275 14.158509 6.407201 -43.814232 -8.724009 -7.011757 68.687388 -10.534029 5.050402 22.475615 6.465670 -0.680374 -15.839132 4.939170 -9.401241 -42.629250 -0.051368 31.917823 69.494853 32.882425 -15.351619 3.030290 -5.461831 -0.018991 0.093262 -0.014067
-232.112813 57.423852 137.914934 -177.516713 -31.380887 -1.358416 -0.604884 21.794014 2.454613 -0.147440 2.972495 0.356575 -0.230765 4.833931 0.576436 -0.645883 18.469416 2.145775 -1.955226 13.900172 -0.141810 -3.654856 -9.956829 0.493983 3.323725 -3.745869 -1.570201 14.905623 -18.218625 -23.294483 143.103603 -70.236183 -101.716214 15.135765 -12.763220 -48.625592 -7.654904 -4.984901 -3.203838 0.630282 -9.168431 0.445176 13.274687 -75.945052 -47.895322 -8.800177 7.453187 14.201705 6.424360 -43.796008 -8.734242 -7.037723 68.685962 -10.567747 5.154179 22.457589 6.464119 -0.655563 -15.846211 4.949067 -9.373414 -42.618559 -0.066018 31.917349 69.495621 32.881960 -15.345478 3.002236 -5.459811 -0.024409 0.122593 -0.015826
-232.108942 57.423538 137.915488 -177.489016 -31.374775 -1.390002 -0.635863 21.784888 2.461367 -0.145187 2.974847 0.358131 -0.229641 4.836103 0.578041 -0.645402 18.473000 2.138922 -1.953937 13.889881 -0.130432 -3.644546 -9.995597 0.523752 3.321568 -3.752379 -1.569063 14.906477 -18.214270 -23.286624 143.046994 -70.249578 -101.668585 15.121032 -12.753788 -48.590462 -7.643139 -4.984936 -3.210487 0.624046 -9.165590 0.443395 13.238619 -75.939753 -47.842882 -8.806425 7.444684 14.228765 6.371193 -43.801346 -8.694351 -7.061051 68.681073 -10.600359 5.152432 22.435601 6.470532 -0.663481 -15.823021 4.942822 -9.419022 -42.623135 -0.029973 31.913408 69.497605 32.868826 -15.361080 3.035121 -5.460691 -0.015902 0.092720 -0.011635
-232.108979 57.424325 137.914347 -177.495476 -31.382604 -1.382637 -0.635186 21.792034 2.453279 -0.144078 2.974993 0.357793 -0.232261 4.836986 0.574593 -0.647419 18.477463 2.135318 -1.946965 13.877316 -0.119817 -3.639720 -9.994437 0.524665 3.325923 -3.758356 -1.566673 14.902423 -18.212092 -23.280541 142.941038 -70.294116 -101.569129 15.135660 -12.766724 -48.574003 -7.637592 -4.989561 -3.215193 0.617354 -9.159393 0.441500 13.200561 -75.941723 -47.789523 -8.798299 7.442194 14.289757 6.366473 -43.794286 -8.679050 -7.080202 68.679452 -10.626664 5.073351 22.445708 6.464472 -0.668594 -15.817955 4.936703 -9.414883 -42.618689 -0.026278 31.916523 69.505719 32.855714 -15.358320 3.037123 -5.447606 -0.024769 0.089913 -0.012817
-232.108042 57.424529 137.914261 -177.494976 -31.383418 -1.386811 -0.638595 21.792842 2.453473 -0.151161 2.976337 0.352267 -0.234773 4.841062 0.570962 -0.640410 18.478565 2.135684 -1.937311 13.865043 -0.107612 -3.629121 -10.016819 0.545261 3.333987 -3.764961 -1.562663 14.896063 -18.209270 -23.277658 142.917141 -70.310966 -101.540348 15.129336 -12.751955 -48.558402 -7.642792 -4.999798 -3.226954 0.624261 -9.149628 0.449953 13.169437 -75.942556 -47.747138 -8.777613 7.443670 14.390814 6.361460 -43.793001 -8.670407 -7.084480 68.678069 -10.630842 5.061342 22.445244 6.464805 -0.669845 -15.815163 4.934269 -9.436305 -42.622383 -0.000143 31.921031 69.515613 32.843373 -15.364874 3.040319 -5.446928 -0.016847 0.084726 -0.010535
-232.107707 57.424964 137.913926 -177.493678 -31.387052 -1.390664 -0.642088 21.796297 2.452761 -0.153262 2.978969 0.349733 -0.235792 4.843238 0.570060 -0.644665 18.482334 2.131199 -1.928025 13.844061 -0.087062 -3.603209 -10.069706 0.597390 3.344400 -3.773915 -1.559626 14.864159 -18.203787 -23.270105 142.970301 -70.307408 -101.569237 15.113355 -12.732100 -48.540634 -7.635970 -5.008447 -3.233568 0.626491 -9.146366 0.459815 13.168725 -75.928613 -47.736871 -8.783194 7.436417 14.420879 6.361471 -43.786269 -8.668718 -7.091748 68.674737 -10.637539 5.098653 22.437451 6.469418 -0.688553 -15.812165 4.942337 -9.442325 -42.618845 0.007067 31.922482 69.517486 32.841881 -15.367920 3.039728 -5.445563 -0.019936 0.083882 -0.010769
-232.107751 57.425471 137.913605 -177.489753 -31.391843 -1.396477 -0.651231 21.801396 2.448142 -0.151772 2.982463 0.349056 -0.234929 4.845018 0.570974 -0.649697 18.485923 2.127858 -1.916314 13.834268 -0.079396 -3.596585 -10.085937 0.613750 3.351862 -3.786281 -1.556939 14.858774 -18.199308 -23.265499 142.935542 -70.327983 -101.533129 15.123196 -12.742254 -48.535072 -7.626958 -5.016371 -3.235309 0.611498 -9.141030 0.450826 13.117518 -75.932237 -47.667252 -8.784935 7.433760 14.433715 6.361212 -43.777692 -8.665766 -7.053064 68.673763 -10.603578 5.106291 22.433084 6.479596 -0.654239 -15.814898 4.932796 -9.457777 -42.615796 0.022027 31.935966 69.523152 32.842964 -15.363866 3.040988 -5.437778 -0.022019 0.080867 -0.012837
-232.108929 57.425751 137.913760 -177.484083 -31.395048 -1.398832 -0.658329 21.808807 2.442309 -0.150421 2.979646 0.351291 -0.237405 4.847648 0.569248 -0.654642 18.489338 2.125833 -1.907745 13.820401 -0.065719 -3.572396 -10.126662 0.650422 3.344185 -3.797255 -1.557285 14.867390 -18.195136 -23.258529 142.898933 -70.343236 -101.495218 15.128593 -12.751071 -48.530981 -7.620357 -5.022128 -3.239628 0.604693 -9.139679 0.445998 13.083604 -75.935195 -47.624508 -8.776375 7.431727 14.465226 6.367186 -43.771426 -8.673339 -7.044562 68.671938 -10.587679 5.088873 22.437357 6.478225 -0.670531 -15.814424 4.936895 -9.469755 -42.613613 0.026863 31.942198 69.524104 32.840096 -15.359674 3.043882 -5.432525 -0.022609 0.079584 -0.013996
